<svg width="320" height="238" viewBox="0 0 320 238" fill="none" xmlns="http://www.w3.org/2000/svg">
<rect width="320" height="238" fill="#E9EDF5"/>
<path d="M29.6564 49L36.3775 30.622H39.8955L46.6166 49H43.2823L38.1102 34.2976L32.9381 49H29.6564ZM32.6493 44.668L33.4895 42.1739H42.5472L43.3873 44.668H32.6493ZM53.6928 49.3151C52.6251 49.3151 51.7062 49.105 50.9361 48.6849C50.1834 48.2474 49.6058 47.5998 49.2033 46.7421C48.8007 45.867 48.5994 44.7906 48.5994 43.5129V35.7678H51.7499V43.1978C51.7499 44.3355 51.9862 45.2019 52.4588 45.797C52.9489 46.3746 53.684 46.6634 54.6642 46.6634C55.2943 46.6634 55.8544 46.5146 56.3444 46.217C56.852 45.9195 57.2458 45.4907 57.5259 44.9306C57.8234 44.353 57.9722 43.6529 57.9722 42.8302V35.7678H61.1227V49H58.3398L58.1035 46.7946C57.7009 47.5648 57.1146 48.1774 56.3444 48.6324C55.5918 49.0875 54.7079 49.3151 53.6928 49.3151ZM70.509 49.3151C69.2838 49.3151 68.1899 49.0175 67.2272 48.4224C66.2646 47.8273 65.512 47.0047 64.9694 45.9545C64.4443 44.9043 64.1817 43.7141 64.1817 42.3839C64.1817 41.0537 64.453 39.8723 64.9956 38.8396C65.5382 37.7894 66.2908 36.9668 67.2535 36.3717C68.2337 35.7591 69.3363 35.4528 70.5615 35.4528C71.5592 35.4528 72.4256 35.6453 73.1607 36.0304C73.9133 36.3979 74.5084 36.923 74.946 37.6056V30.0969H78.0965V49H75.2611L74.946 47.0834C74.666 47.4685 74.3246 47.8361 73.9221 48.1861C73.5195 48.5187 73.0382 48.79 72.4781 49C71.918 49.21 71.2616 49.3151 70.509 49.3151ZM71.1654 46.5846C71.918 46.5846 72.5831 46.4096 73.1607 46.0595C73.7383 45.692 74.1846 45.1931 74.4997 44.563C74.8147 43.9329 74.9723 43.2066 74.9723 42.3839C74.9723 41.5613 74.8147 40.8349 74.4997 40.2048C74.1846 39.5747 73.7383 39.0846 73.1607 38.7346C72.5831 38.3845 71.918 38.2095 71.1654 38.2095C70.4478 38.2095 69.8002 38.3845 69.2226 38.7346C68.645 39.0846 68.1899 39.5747 67.8573 40.2048C67.5423 40.8349 67.3848 41.5613 67.3848 42.3839C67.3848 43.2066 67.5423 43.9329 67.8573 44.563C68.1899 45.1931 68.645 45.692 69.2226 46.0595C69.8002 46.4096 70.4478 46.5846 71.1654 46.5846ZM81.7323 49V35.7678H84.8828V49H81.7323ZM83.3076 33.6675C82.73 33.6675 82.2487 33.4925 81.8636 33.1424C81.496 32.7749 81.3122 32.3285 81.3122 31.8035C81.3122 31.2609 81.496 30.8233 81.8636 30.4907C82.2487 30.1407 82.73 29.9657 83.3076 29.9657C83.8852 29.9657 84.3577 30.1407 84.7253 30.4907C85.1104 30.8233 85.3029 31.2609 85.3029 31.8035C85.3029 32.3285 85.1104 32.7749 84.7253 33.1424C84.3577 33.4925 83.8852 33.6675 83.3076 33.6675ZM94.6933 49.3151C93.4331 49.3151 92.2954 49.0263 91.2803 48.4487C90.2826 47.8536 89.495 47.0397 88.9174 46.007C88.3573 44.9568 88.0772 43.7579 88.0772 42.4102C88.0772 41.0275 88.366 39.8198 88.9436 38.7871C89.5212 37.7369 90.3088 36.923 91.3065 36.3454C92.3217 35.7503 93.4594 35.4528 94.7196 35.4528C95.9798 35.4528 97.1087 35.7503 98.1064 36.3454C99.1215 36.923 99.9092 37.7282 100.469 38.7608C101.047 39.7935 101.336 41.0012 101.336 42.3839C101.336 43.7666 101.047 44.9743 100.469 46.007C99.8917 47.0397 99.0953 47.8536 98.0801 48.4487C97.0825 49.0263 95.9535 49.3151 94.6933 49.3151ZM94.6933 46.6109C95.3234 46.6109 95.8923 46.4533 96.3998 46.1383C96.9249 45.8232 97.345 45.3507 97.66 44.7206C97.9751 44.0905 98.1326 43.3116 98.1326 42.3839C98.1326 41.4563 97.9751 40.6861 97.66 40.0735C97.3625 39.4434 96.9512 38.9709 96.4261 38.6558C95.9185 38.3408 95.3497 38.1832 94.7196 38.1832C94.107 38.1832 93.5381 38.3408 93.013 38.6558C92.488 38.9709 92.0679 39.4434 91.7528 40.0735C91.4378 40.6861 91.2803 41.4563 91.2803 42.3839C91.2803 43.3116 91.4378 44.0905 91.7528 44.7206C92.0679 45.3507 92.4792 45.8232 92.9868 46.1383C93.5119 46.4533 94.0807 46.6109 94.6933 46.6109ZM116.264 49L109.517 30.622H112.904L118.181 45.7707L123.536 30.622H126.871L120.097 49H116.264ZM129.216 49V35.7678H132.366V49H129.216ZM130.791 33.6675C130.213 33.6675 129.732 33.4925 129.347 33.1424C128.979 32.7749 128.796 32.3285 128.796 31.8035C128.796 31.2609 128.979 30.8233 129.347 30.4907C129.732 30.1407 130.213 29.9657 130.791 29.9657C131.368 29.9657 131.841 30.1407 132.209 30.4907C132.594 30.8233 132.786 31.2609 132.786 31.8035C132.786 32.3285 132.594 32.7749 132.209 33.1424C131.841 33.4925 131.368 33.6675 130.791 33.6675ZM141.284 49.3151C140.111 49.3151 139.087 49.1313 138.212 48.7637C137.355 48.3786 136.672 47.8536 136.164 47.1885C135.674 46.5058 135.386 45.727 135.298 44.8518H138.449C138.536 45.2194 138.694 45.5607 138.921 45.8757C139.149 46.1733 139.455 46.4096 139.84 46.5846C140.243 46.7596 140.715 46.8471 141.258 46.8471C141.783 46.8471 142.212 46.7771 142.544 46.6371C142.877 46.4796 143.122 46.2783 143.279 46.0333C143.437 45.7882 143.516 45.5257 143.516 45.2456C143.516 44.8256 143.402 44.5018 143.174 44.2742C142.947 44.0467 142.614 43.8717 142.177 43.7491C141.757 43.6091 141.249 43.4779 140.654 43.3553C140.024 43.2328 139.411 43.084 138.816 42.909C138.238 42.7165 137.713 42.4802 137.241 42.2001C136.786 41.9201 136.418 41.5613 136.138 41.1237C135.876 40.6861 135.744 40.1523 135.744 39.5222C135.744 38.7521 135.946 38.0607 136.348 37.4481C136.768 36.8355 137.363 36.3542 138.133 36.0041C138.921 35.6366 139.857 35.4528 140.943 35.4528C142.483 35.4528 143.708 35.8116 144.618 36.5292C145.546 37.2293 146.089 38.2182 146.246 39.496H143.253C143.166 39.0059 142.92 38.6296 142.518 38.367C142.115 38.087 141.582 37.947 140.916 37.947C140.234 37.947 139.709 38.0782 139.341 38.3408C138.991 38.5858 138.816 38.9184 138.816 39.3384C138.816 39.601 138.921 39.846 139.131 40.0735C139.359 40.2836 139.682 40.4674 140.103 40.6249C140.523 40.7649 141.039 40.9049 141.652 41.045C142.632 41.2375 143.498 41.465 144.251 41.7276C145.003 41.9901 145.598 42.3752 146.036 42.8828C146.474 43.3903 146.692 44.108 146.692 45.0356C146.71 45.8757 146.491 46.6196 146.036 47.2672C145.598 47.9148 144.977 48.4224 144.172 48.79C143.367 49.14 142.404 49.3151 141.284 49.3151ZM154.659 49.3151C153.591 49.3151 152.672 49.105 151.902 48.6849C151.15 48.2474 150.572 47.5998 150.169 46.7421C149.767 45.867 149.566 44.7906 149.566 43.5129V35.7678H152.716V43.1978C152.716 44.3355 152.952 45.2019 153.425 45.797C153.915 46.3746 154.65 46.6634 155.63 46.6634C156.26 46.6634 156.82 46.5146 157.311 46.217C157.818 45.9195 158.212 45.4907 158.492 44.9306C158.79 44.353 158.938 43.6529 158.938 42.8302V35.7678H162.089V49H159.306L159.07 46.7946C158.667 47.5648 158.081 48.1774 157.311 48.6324C156.558 49.0875 155.674 49.3151 154.659 49.3151ZM170.005 49.3151C168.92 49.3151 168.018 49.1313 167.301 48.7637C166.583 48.3962 166.049 47.9061 165.699 47.2935C165.349 46.6809 165.174 46.0158 165.174 45.2981C165.174 44.458 165.384 43.7316 165.804 43.119C166.242 42.5064 166.881 42.0339 167.721 41.7013C168.561 41.3513 169.594 41.1762 170.819 41.1762H174.153C174.153 40.4761 174.057 39.8985 173.864 39.4434C173.672 38.9709 173.374 38.6208 172.972 38.3933C172.569 38.1657 172.053 38.052 171.423 38.052C170.705 38.052 170.092 38.2182 169.585 38.5508C169.077 38.8659 168.762 39.3559 168.64 40.021H165.542C165.647 39.0759 165.962 38.2708 166.487 37.6056C167.012 36.923 167.703 36.3979 168.561 36.0304C169.436 35.6453 170.39 35.4528 171.423 35.4528C172.665 35.4528 173.724 35.6716 174.599 36.1092C175.475 36.5292 176.14 37.1418 176.595 37.947C177.067 38.7346 177.304 39.6885 177.304 40.8087V49H174.626L174.311 46.8734C174.136 47.2235 173.908 47.5473 173.628 47.8448C173.365 48.1424 173.059 48.4049 172.709 48.6324C172.359 48.8425 171.956 49.0088 171.501 49.1313C171.064 49.2538 170.565 49.3151 170.005 49.3151ZM170.714 46.8209C171.221 46.8209 171.668 46.7334 172.053 46.5584C172.455 46.3658 172.797 46.1033 173.077 45.7707C173.374 45.4207 173.602 45.0356 173.759 44.6155C173.917 44.1955 174.022 43.7491 174.074 43.2766V43.2241H171.16C170.548 43.2241 170.04 43.3028 169.637 43.4603C169.235 43.6004 168.946 43.8104 168.771 44.0905C168.596 44.3705 168.508 44.6943 168.508 45.0619C168.508 45.4294 168.596 45.7445 168.771 46.007C168.946 46.2696 169.2 46.4708 169.532 46.6109C169.865 46.7509 170.259 46.8209 170.714 46.8209ZM180.67 49V30.0969H183.82V49H180.67ZM37.0338 83.3151C35.7036 83.3151 34.5221 83.0788 33.4895 82.6062C32.4568 82.1336 31.6517 81.4597 31.0741 80.5846C30.4965 79.7095 30.1989 78.668 30.1814 77.4603H33.5157C33.5157 78.0729 33.6558 78.6243 33.9358 79.1144C34.2334 79.5869 34.6359 79.9633 35.1435 80.2433C35.6686 80.5233 36.2987 80.6634 37.0338 80.6634C37.6639 80.6634 38.2065 80.5671 38.6616 80.3746C39.1341 80.1645 39.493 79.8757 39.738 79.5082C40.0005 79.1231 40.1318 78.6768 40.1318 78.1692C40.1318 77.5916 39.9918 77.119 39.7117 76.7515C39.4492 76.3664 39.0816 76.0426 38.6091 75.7801C38.1365 75.5175 37.5939 75.29 36.9813 75.0975C36.3687 74.8874 35.7211 74.6686 35.0385 74.4411C33.5857 73.951 32.4918 73.3297 31.7567 72.5771C31.0216 71.8069 30.654 70.783 30.654 69.5053C30.654 68.4376 30.9078 67.5187 31.4154 66.7486C31.923 65.9785 32.6318 65.3834 33.542 64.9633C34.4696 64.5257 35.5373 64.307 36.745 64.307C37.9702 64.307 39.0379 64.5257 39.948 64.9633C40.8757 65.4009 41.6021 66.0135 42.1271 66.8011C42.6697 67.5712 42.9498 68.4989 42.9673 69.5841H39.6067C39.5892 69.129 39.4667 68.7089 39.2392 68.3239C39.0116 67.9213 38.6791 67.5975 38.2415 67.3525C37.8214 67.0899 37.3051 66.9586 36.6925 66.9586C36.1674 66.9411 35.6948 67.0287 35.2748 67.2212C34.8722 67.3962 34.5484 67.6588 34.3034 68.0088C34.0758 68.3414 33.9621 68.7614 33.9621 69.269C33.9621 69.7591 34.0671 70.1704 34.2771 70.503C34.5046 70.818 34.8284 71.0893 35.2485 71.3168C35.6686 71.5269 36.1587 71.7282 36.7188 71.9207C37.2788 72.1132 37.8914 72.3233 38.5566 72.5508C39.4667 72.8483 40.2893 73.2159 41.0245 73.6535C41.7771 74.0735 42.3722 74.6249 42.8097 75.3075C43.2473 75.9901 43.4661 76.874 43.4661 77.9592C43.4661 78.9043 43.2211 79.7882 42.731 80.6109C42.2409 81.416 41.5233 82.0723 40.5781 82.5799C39.633 83.07 38.4515 83.3151 37.0338 83.3151ZM52.5942 83.3151C51.334 83.3151 50.1963 83.0263 49.1811 82.4487C48.1835 81.8536 47.3958 81.0397 46.8182 80.007C46.2581 78.9568 45.9781 77.7579 45.9781 76.4102C45.9781 75.0275 46.2669 73.8198 46.8445 72.7871C47.4221 71.7369 48.2097 70.923 49.2074 70.3454C50.2225 69.7503 51.3602 69.4528 52.6204 69.4528C53.8806 69.4528 55.0096 69.7503 56.0072 70.3454C57.0224 70.923 57.81 71.7282 58.3701 72.7608C58.9477 73.7935 59.2365 75.0012 59.2365 76.3839C59.2365 77.7666 58.9477 78.9743 58.3701 80.007C57.7925 81.0397 56.9961 81.8536 55.981 82.4487C54.9833 83.0263 53.8544 83.3151 52.5942 83.3151ZM52.5942 80.6109C53.2243 80.6109 53.7931 80.4533 54.3007 80.1383C54.8258 79.8232 55.2459 79.3507 55.5609 78.7206C55.876 78.0905 56.0335 77.3116 56.0335 76.3839C56.0335 75.4563 55.876 74.6861 55.5609 74.0735C55.2634 73.4434 54.852 72.9709 54.327 72.6558C53.8194 72.3408 53.2505 72.1832 52.6204 72.1832C52.0078 72.1832 51.439 72.3408 50.9139 72.6558C50.3888 72.9709 49.9688 73.4434 49.6537 74.0735C49.3387 74.6861 49.1811 75.4563 49.1811 76.3839C49.1811 77.3116 49.3387 78.0905 49.6537 78.7206C49.9688 79.3507 50.3801 79.8232 50.8877 80.1383C51.4127 80.4533 51.9816 80.6109 52.5942 80.6109ZM62.3206 83V64.0969H65.4711V83H62.3206ZM73.8962 83.3151C72.8286 83.3151 71.9097 83.105 71.1395 82.6849C70.3869 82.2474 69.8093 81.5998 69.4068 80.7421C69.0042 79.867 68.8029 78.7906 68.8029 77.5129V69.7678H71.9534V77.1978C71.9534 78.3355 72.1897 79.2019 72.6623 79.797C73.1524 80.3746 73.8875 80.6634 74.8676 80.6634C75.4977 80.6634 76.0578 80.5146 76.5479 80.217C77.0555 79.9195 77.4493 79.4907 77.7294 78.9306C78.0269 78.353 78.1757 77.6529 78.1757 76.8302V69.7678H81.3262V83H78.5432L78.307 80.7946C77.9044 81.5648 77.318 82.1774 76.5479 82.6324C75.7953 83.0875 74.9114 83.3151 73.8962 83.3151ZM90.5812 83C89.6886 83 88.9097 82.86 88.2446 82.5799C87.597 82.2999 87.0894 81.8361 86.7219 81.1885C86.3543 80.5408 86.1705 79.6657 86.1705 78.563V72.4195H83.9127V69.7678H86.1705L86.5381 66.276H89.321V69.7678H92.9179V72.4195H89.321V78.563C89.321 79.2281 89.4611 79.692 89.7411 79.9545C90.0387 80.1995 90.5287 80.3221 91.2113 80.3221H92.8391V83H90.5812ZM96.0132 83V69.7678H99.1637V83H96.0132ZM97.5885 67.6675C97.0109 67.6675 96.5295 67.4925 96.1445 67.1424C95.7769 66.7749 95.5931 66.3285 95.5931 65.8035C95.5931 65.2609 95.7769 64.8233 96.1445 64.4907C96.5295 64.1407 97.0109 63.9657 97.5885 63.9657C98.1661 63.9657 98.6386 64.1407 99.0062 64.4907C99.3913 64.8233 99.5838 65.2609 99.5838 65.8035C99.5838 66.3285 99.3913 66.7749 99.0062 67.1424C98.6386 67.4925 98.1661 67.6675 97.5885 67.6675ZM108.974 83.3151C107.714 83.3151 106.576 83.0263 105.561 82.4487C104.563 81.8536 103.776 81.0397 103.198 80.007C102.638 78.9568 102.358 77.7579 102.358 76.4102C102.358 75.0275 102.647 73.8198 103.225 72.7871C103.802 71.7369 104.59 70.923 105.587 70.3454C106.603 69.7503 107.74 69.4528 109 69.4528C110.261 69.4528 111.39 69.7503 112.387 70.3454C113.402 70.923 114.19 71.7282 114.75 72.7608C115.328 73.7935 115.617 75.0012 115.617 76.3839C115.617 77.7666 115.328 78.9743 114.75 80.007C114.173 81.0397 113.376 81.8536 112.361 82.4487C111.363 83.0263 110.234 83.3151 108.974 83.3151ZM108.974 80.6109C109.604 80.6109 110.173 80.4533 110.681 80.1383C111.206 79.8232 111.626 79.3507 111.941 78.7206C112.256 78.0905 112.414 77.3116 112.414 76.3839C112.414 75.4563 112.256 74.6861 111.941 74.0735C111.643 73.4434 111.232 72.9709 110.707 72.6558C110.199 72.3408 109.631 72.1832 109 72.1832C108.388 72.1832 107.819 72.3408 107.294 72.6558C106.769 72.9709 106.349 73.4434 106.034 74.0735C105.719 74.6861 105.561 75.4563 105.561 76.3839C105.561 77.3116 105.719 78.0905 106.034 78.7206C106.349 79.3507 106.76 79.8232 107.268 80.1383C107.793 80.4533 108.362 80.6109 108.974 80.6109ZM118.701 83V69.7678H121.484L121.72 71.9732C122.122 71.2031 122.7 70.5905 123.453 70.1354C124.205 69.6803 125.098 69.4528 126.131 69.4528C127.198 69.4528 128.108 69.6803 128.861 70.1354C129.614 70.573 130.191 71.2206 130.594 72.0782C131.014 72.9359 131.224 74.0035 131.224 75.2812V83H128.073V75.57C128.073 74.4674 127.828 73.6185 127.338 73.0234C126.848 72.4283 126.122 72.1307 125.159 72.1307C124.529 72.1307 123.96 72.2795 123.453 72.5771C122.963 72.8746 122.569 73.3122 122.271 73.8898C121.991 74.4499 121.851 75.1325 121.851 75.9376V83H118.701ZM139.823 83.3151C138.65 83.3151 137.626 83.1313 136.751 82.7637C135.893 82.3786 135.211 81.8536 134.703 81.1885C134.213 80.5058 133.924 79.727 133.837 78.8518H136.987C137.075 79.2194 137.232 79.5607 137.46 79.8757C137.687 80.1733 137.994 80.4096 138.379 80.5846C138.781 80.7596 139.254 80.8471 139.796 80.8471C140.321 80.8471 140.75 80.7771 141.083 80.6371C141.415 80.4796 141.66 80.2783 141.818 80.0333C141.975 79.7882 142.054 79.5257 142.054 79.2456C142.054 78.8256 141.94 78.5018 141.713 78.2742C141.485 78.0467 141.153 77.8717 140.715 77.7491C140.295 77.6091 139.788 77.4779 139.192 77.3553C138.562 77.2328 137.95 77.084 137.355 76.909C136.777 76.7165 136.252 76.4802 135.779 76.2001C135.324 75.9201 134.957 75.5613 134.677 75.1237C134.414 74.6861 134.283 74.1523 134.283 73.5222C134.283 72.7521 134.484 72.0607 134.887 71.4481C135.307 70.8355 135.902 70.3542 136.672 70.0041C137.46 69.6366 138.396 69.4528 139.481 69.4528C141.022 69.4528 142.247 69.8116 143.157 70.5292C144.085 71.2293 144.627 72.2182 144.785 73.496H141.792C141.704 73.0059 141.459 72.6296 141.057 72.367C140.654 72.087 140.12 71.947 139.455 71.947C138.772 71.947 138.247 72.0782 137.88 72.3408C137.53 72.5858 137.355 72.9184 137.355 73.3384C137.355 73.601 137.46 73.846 137.67 74.0735C137.897 74.2836 138.221 74.4674 138.641 74.6249C139.061 74.7649 139.578 74.9049 140.19 75.045C141.17 75.2375 142.037 75.465 142.789 75.7276C143.542 75.9901 144.137 76.3752 144.575 76.8828C145.012 77.3903 145.231 78.108 145.231 79.0356C145.248 79.8757 145.03 80.6196 144.575 81.2672C144.137 81.9148 143.516 82.4224 142.711 82.79C141.905 83.14 140.943 83.3151 139.823 83.3151Z" fill="#001D42"/>
<g clip-path="url(#clip0_410_710)">
<path d="M200 202.553H213.714V208.775C213.714 210.426 213.473 212.008 213.045 213.175C212.616 214.342 212.035 214.998 211.429 214.998H202.286C201.68 214.998 201.098 214.342 200.669 213.175C200.241 212.008 200 210.426 200 208.775V202.553Z" fill="url(#paint0_linear_410_710)"/>
<path d="M282.285 202.553H295.999V208.775C295.999 210.426 295.759 212.008 295.33 213.175C294.901 214.342 294.32 214.998 293.714 214.998H284.571C283.965 214.998 283.383 214.342 282.955 213.175C282.526 212.008 282.285 210.426 282.285 208.775V202.553Z" fill="url(#paint1_linear_410_710)"/>
<path d="M234.287 134.999C234.287 132.474 232.241 130.428 229.716 130.428C227.191 130.428 225.145 132.474 225.145 134.999V144.142C225.145 146.667 227.191 148.713 229.716 148.713C232.241 148.713 234.287 146.667 234.287 144.142V134.999Z" fill="url(#paint2_linear_410_710)"/>
<path d="M261.713 144.143C261.713 146.668 263.759 148.715 266.284 148.715C268.809 148.715 270.855 146.668 270.855 144.143V135.001C270.855 132.476 268.809 130.429 266.284 130.429C263.759 130.429 261.713 132.476 261.713 135.001V144.143Z" fill="url(#paint3_linear_410_710)"/>
<foreignObject x="188" y="107" width="67.4286" height="120"><div xmlns="http://www.w3.org/1999/xhtml" style="backdrop-filter:blur(6px);clip-path:url(#bgblur_1_410_710_clip_path);height:100%;width:100%"></div></foreignObject><g filter="url(#filter0_i_410_710)" data-figma-bg-blur-radius="12">
<path d="M229.714 119C213.303 119 200 137.421 200 160.143V212.714C200 213.32 200.241 213.902 200.669 214.331C201.098 214.759 201.68 215 202.286 215H211.429C212.035 215 212.616 214.759 213.045 214.331C213.473 213.902 213.714 213.32 213.714 212.714V160.143C213.716 158.377 213.827 156.613 214.048 154.861C214.107 154.397 214.306 153.962 214.62 153.615C214.933 153.268 215.346 153.025 215.802 152.92C216.258 152.815 216.735 152.852 217.169 153.027C217.603 153.201 217.973 153.505 218.229 153.896C219.842 156.369 222.211 158.255 224.982 159.274C227.753 160.293 230.78 160.39 233.611 159.551C236.442 158.712 238.927 156.982 240.695 154.618C242.464 152.253 243.423 149.381 243.429 146.429V132.714C243.429 129.077 241.984 125.589 239.412 123.017C236.84 120.445 233.352 119 229.714 119Z" fill="#1D1D1D" fill-opacity="0.05"/>
<path d="M229.714 119C213.303 119 200 137.421 200 160.143V212.714C200 213.32 200.241 213.902 200.669 214.331C201.098 214.759 201.68 215 202.286 215H211.429C212.035 215 212.616 214.759 213.045 214.331C213.473 213.902 213.714 213.32 213.714 212.714V160.143C213.716 158.377 213.827 156.613 214.048 154.861C214.107 154.397 214.306 153.962 214.62 153.615C214.933 153.268 215.346 153.025 215.802 152.92C216.258 152.815 216.735 152.852 217.169 153.027C217.603 153.201 217.973 153.505 218.229 153.896C219.842 156.369 222.211 158.255 224.982 159.274C227.753 160.293 230.78 160.39 233.611 159.551C236.442 158.712 238.927 156.982 240.695 154.618C242.464 152.253 243.423 149.381 243.429 146.429V132.714C243.429 129.077 241.984 125.589 239.412 123.017C236.84 120.445 233.352 119 229.714 119Z" fill="url(#paint4_linear_410_710)" fill-opacity="0.2"/>
<path d="M229.714 119.5C233.219 119.5 236.58 120.892 239.059 123.37C241.537 125.848 242.929 129.209 242.929 132.714V146.429C242.923 149.273 241.999 152.041 240.295 154.318C238.591 156.596 236.196 158.263 233.469 159.071C230.741 159.88 227.825 159.786 225.154 158.805C222.484 157.823 220.202 156.006 218.647 153.623V153.622L218.523 153.448C218.221 153.055 217.818 152.749 217.355 152.562C216.827 152.35 216.245 152.304 215.689 152.433C215.134 152.561 214.631 152.856 214.249 153.279C213.867 153.702 213.623 154.232 213.552 154.798C213.329 156.571 213.216 158.356 213.214 160.143V212.714C213.214 213.187 213.026 213.642 212.691 213.977C212.357 214.311 211.902 214.5 211.429 214.5H202.286C201.813 214.5 201.358 214.311 201.023 213.977C200.689 213.642 200.5 213.187 200.5 212.714V160.143C200.5 148.875 203.799 138.695 209.108 131.344C214.418 123.992 221.709 119.5 229.714 119.5Z" stroke="url(#paint5_linear_410_710)" stroke-opacity="0.1"/>
</g>
<g filter="url(#filter1_i_410_710)">
<path d="M234.286 135C234.286 132.475 232.239 130.428 229.714 130.428C227.19 130.428 225.143 132.475 225.143 135V144.143C225.143 146.667 227.19 148.714 229.714 148.714C232.239 148.714 234.286 146.667 234.286 144.143V135Z" fill="white" fill-opacity="0.1"/>
</g>
<foreignObject x="240.571" y="107" width="67.4286" height="120"><div xmlns="http://www.w3.org/1999/xhtml" style="backdrop-filter:blur(6px);clip-path:url(#bgblur_2_410_710_clip_path);height:100%;width:100%"></div></foreignObject><g filter="url(#filter2_i_410_710)" data-figma-bg-blur-radius="12">
<path d="M266.286 119C282.697 119 296 137.421 296 160.143V212.714C296 213.32 295.759 213.902 295.331 214.331C294.902 214.759 294.321 215 293.714 215H284.571C283.965 215 283.384 214.759 282.955 214.331C282.527 213.902 282.286 213.32 282.286 212.714V160.143C282.284 158.377 282.173 156.613 281.952 154.861C281.893 154.397 281.694 153.962 281.38 153.615C281.067 153.268 280.654 153.025 280.198 152.92C279.742 152.815 279.265 152.852 278.831 153.027C278.397 153.201 278.027 153.505 277.771 153.896C276.158 156.369 273.789 158.255 271.018 159.274C268.247 160.293 265.22 160.39 262.389 159.551C259.558 158.712 257.073 156.982 255.305 154.618C253.536 152.253 252.577 149.381 252.571 146.429V132.714C252.571 129.077 254.016 125.589 256.588 123.017C259.16 120.445 262.648 119 266.286 119Z" fill="#1D1D1D" fill-opacity="0.05"/>
<path d="M266.286 119C282.697 119 296 137.421 296 160.143V212.714C296 213.32 295.759 213.902 295.331 214.331C294.902 214.759 294.321 215 293.714 215H284.571C283.965 215 283.384 214.759 282.955 214.331C282.527 213.902 282.286 213.32 282.286 212.714V160.143C282.284 158.377 282.173 156.613 281.952 154.861C281.893 154.397 281.694 153.962 281.38 153.615C281.067 153.268 280.654 153.025 280.198 152.92C279.742 152.815 279.265 152.852 278.831 153.027C278.397 153.201 278.027 153.505 277.771 153.896C276.158 156.369 273.789 158.255 271.018 159.274C268.247 160.293 265.22 160.39 262.389 159.551C259.558 158.712 257.073 156.982 255.305 154.618C253.536 152.253 252.577 149.381 252.571 146.429V132.714C252.571 129.077 254.016 125.589 256.588 123.017C259.16 120.445 262.648 119 266.286 119Z" fill="url(#paint6_linear_410_710)" fill-opacity="0.2"/>
<path d="M266.285 119.5C274.29 119.5 281.582 123.992 286.892 131.344C292.201 138.695 295.5 148.875 295.5 160.143V212.714C295.5 213.187 295.312 213.642 294.977 213.977C294.642 214.311 294.188 214.5 293.714 214.5H284.571C284.098 214.5 283.644 214.311 283.309 213.977C282.974 213.642 282.785 213.187 282.785 212.714V160.143L282.779 159.473C282.754 157.91 282.644 156.349 282.448 154.798C282.377 154.232 282.133 153.702 281.751 153.279C281.369 152.856 280.866 152.561 280.311 152.433C279.755 152.304 279.174 152.35 278.645 152.562C278.116 152.775 277.665 153.145 277.353 153.622V153.623C275.798 156.006 273.516 157.823 270.846 158.805C268.175 159.786 265.259 159.88 262.531 159.071C259.804 158.263 257.41 156.596 255.705 154.318C254.107 152.183 253.195 149.617 253.083 146.96L253.071 146.428V132.714C253.072 129.209 254.463 125.848 256.942 123.37C259.42 120.892 262.781 119.5 266.285 119.5Z" stroke="url(#paint7_linear_410_710)" stroke-opacity="0.1"/>
</g>
<g filter="url(#filter3_i_410_710)">
<path d="M261.714 144.143C261.714 146.668 263.761 148.714 266.286 148.714C268.81 148.714 270.857 146.668 270.857 144.143V135C270.857 132.475 268.81 130.429 266.286 130.429C263.761 130.429 261.714 132.475 261.714 135V144.143Z" fill="white" fill-opacity="0.1"/>
</g>
</g>
<defs>
<filter id="filter0_i_410_710" x="188" y="107" width="67.4286" height="120" filterUnits="userSpaceOnUse" color-interpolation-filters="sRGB">
<feFlood flood-opacity="0" result="BackgroundImageFix"/>
<feBlend mode="normal" in="SourceGraphic" in2="BackgroundImageFix" result="shape"/>
<feColorMatrix in="SourceAlpha" type="matrix" values="0 0 0 0 0 0 0 0 0 0 0 0 0 0 0 0 0 0 127 0" result="hardAlpha"/>
<feOffset dy="2"/>
<feGaussianBlur stdDeviation="4"/>
<feComposite in2="hardAlpha" operator="arithmetic" k2="-1" k3="1"/>
<feColorMatrix type="matrix" values="0 0 0 0 1 0 0 0 0 1 0 0 0 0 1 0 0 0 0.15 0"/>
<feBlend mode="normal" in2="shape" result="effect1_innerShadow_410_710"/>
</filter>
<clipPath id="bgblur_1_410_710_clip_path" transform="translate(-188 -107)"><path d="M229.714 119C213.303 119 200 137.421 200 160.143V212.714C200 213.32 200.241 213.902 200.669 214.331C201.098 214.759 201.68 215 202.286 215H211.429C212.035 215 212.616 214.759 213.045 214.331C213.473 213.902 213.714 213.32 213.714 212.714V160.143C213.716 158.377 213.827 156.613 214.048 154.861C214.107 154.397 214.306 153.962 214.62 153.615C214.933 153.268 215.346 153.025 215.802 152.92C216.258 152.815 216.735 152.852 217.169 153.027C217.603 153.201 217.973 153.505 218.229 153.896C219.842 156.369 222.211 158.255 224.982 159.274C227.753 160.293 230.78 160.39 233.611 159.551C236.442 158.712 238.927 156.982 240.695 154.618C242.464 152.253 243.423 149.381 243.429 146.429V132.714C243.429 129.077 241.984 125.589 239.412 123.017C236.84 120.445 233.352 119 229.714 119Z"/>
</clipPath><filter id="filter1_i_410_710" x="225.143" y="130.428" width="9.14285" height="20.2856" filterUnits="userSpaceOnUse" color-interpolation-filters="sRGB">
<feFlood flood-opacity="0" result="BackgroundImageFix"/>
<feBlend mode="normal" in="SourceGraphic" in2="BackgroundImageFix" result="shape"/>
<feColorMatrix in="SourceAlpha" type="matrix" values="0 0 0 0 0 0 0 0 0 0 0 0 0 0 0 0 0 0 127 0" result="hardAlpha"/>
<feOffset dy="2"/>
<feGaussianBlur stdDeviation="1"/>
<feComposite in2="hardAlpha" operator="arithmetic" k2="-1" k3="1"/>
<feColorMatrix type="matrix" values="0 0 0 0 1 0 0 0 0 1 0 0 0 0 1 0 0 0 0.1 0"/>
<feBlend mode="normal" in2="shape" result="effect1_innerShadow_410_710"/>
</filter>
<filter id="filter2_i_410_710" x="240.571" y="107" width="67.4286" height="120" filterUnits="userSpaceOnUse" color-interpolation-filters="sRGB">
<feFlood flood-opacity="0" result="BackgroundImageFix"/>
<feBlend mode="normal" in="SourceGraphic" in2="BackgroundImageFix" result="shape"/>
<feColorMatrix in="SourceAlpha" type="matrix" values="0 0 0 0 0 0 0 0 0 0 0 0 0 0 0 0 0 0 127 0" result="hardAlpha"/>
<feOffset dy="2"/>
<feGaussianBlur stdDeviation="4"/>
<feComposite in2="hardAlpha" operator="arithmetic" k2="-1" k3="1"/>
<feColorMatrix type="matrix" values="0 0 0 0 1 0 0 0 0 1 0 0 0 0 1 0 0 0 0.15 0"/>
<feBlend mode="normal" in2="shape" result="effect1_innerShadow_410_710"/>
</filter>
<clipPath id="bgblur_2_410_710_clip_path" transform="translate(-240.571 -107)"><path d="M266.286 119C282.697 119 296 137.421 296 160.143V212.714C296 213.32 295.759 213.902 295.331 214.331C294.902 214.759 294.321 215 293.714 215H284.571C283.965 215 283.384 214.759 282.955 214.331C282.527 213.902 282.286 213.32 282.286 212.714V160.143C282.284 158.377 282.173 156.613 281.952 154.861C281.893 154.397 281.694 153.962 281.38 153.615C281.067 153.268 280.654 153.025 280.198 152.92C279.742 152.815 279.265 152.852 278.831 153.027C278.397 153.201 278.027 153.505 277.771 153.896C276.158 156.369 273.789 158.255 271.018 159.274C268.247 160.293 265.22 160.39 262.389 159.551C259.558 158.712 257.073 156.982 255.305 154.618C253.536 152.253 252.577 149.381 252.571 146.429V132.714C252.571 129.077 254.016 125.589 256.588 123.017C259.16 120.445 262.648 119 266.286 119Z"/>
</clipPath><filter id="filter3_i_410_710" x="261.714" y="130.429" width="9.14285" height="20.2856" filterUnits="userSpaceOnUse" color-interpolation-filters="sRGB">
<feFlood flood-opacity="0" result="BackgroundImageFix"/>
<feBlend mode="normal" in="SourceGraphic" in2="BackgroundImageFix" result="shape"/>
<feColorMatrix in="SourceAlpha" type="matrix" values="0 0 0 0 0 0 0 0 0 0 0 0 0 0 0 0 0 0 127 0" result="hardAlpha"/>
<feOffset dy="2"/>
<feGaussianBlur stdDeviation="1"/>
<feComposite in2="hardAlpha" operator="arithmetic" k2="-1" k3="1"/>
<feColorMatrix type="matrix" values="0 0 0 0 1 0 0 0 0 1 0 0 0 0 1 0 0 0 0.1 0"/>
<feBlend mode="normal" in2="shape" result="effect1_innerShadow_410_710"/>
</filter>
<linearGradient id="paint0_linear_410_710" x1="200" y1="202.553" x2="215.948" y2="207.015" gradientUnits="userSpaceOnUse">
<stop stop-color="#75A5FF"/>
<stop offset="0.703125" stop-color="#2339FF"/>
</linearGradient>
<linearGradient id="paint1_linear_410_710" x1="282.285" y1="202.553" x2="298.233" y2="207.015" gradientUnits="userSpaceOnUse">
<stop stop-color="#75A5FF"/>
<stop offset="0.703125" stop-color="#2339FF"/>
</linearGradient>
<linearGradient id="paint2_linear_410_710" x1="225.145" y1="130.428" x2="236.427" y2="131.86" gradientUnits="userSpaceOnUse">
<stop stop-color="#75A5FF"/>
<stop offset="0.703125" stop-color="#2339FF"/>
</linearGradient>
<linearGradient id="paint3_linear_410_710" x1="270.855" y1="148.715" x2="259.573" y2="147.282" gradientUnits="userSpaceOnUse">
<stop stop-color="#75A5FF"/>
<stop offset="0.703125" stop-color="#2339FF"/>
</linearGradient>
<linearGradient id="paint4_linear_410_710" x1="200" y1="119" x2="253.747" y2="125.174" gradientUnits="userSpaceOnUse">
<stop stop-color="#87FFE1"/>
<stop offset="0.776042" stop-color="#5C6DFF"/>
</linearGradient>
<linearGradient id="paint5_linear_410_710" x1="201.357" y1="123.364" x2="243.429" y2="123.364" gradientUnits="userSpaceOnUse">
<stop stop-color="#3CDEB6"/>
<stop offset="0.65625" stop-color="#364AFF"/>
</linearGradient>
<linearGradient id="paint6_linear_410_710" x1="252.571" y1="119" x2="306.318" y2="125.174" gradientUnits="userSpaceOnUse">
<stop stop-color="#87FFE1"/>
<stop offset="0.776042" stop-color="#5C6DFF"/>
</linearGradient>
<linearGradient id="paint7_linear_410_710" x1="253.929" y1="123.364" x2="296" y2="123.364" gradientUnits="userSpaceOnUse">
<stop stop-color="#3CDEB6"/>
<stop offset="0.65625" stop-color="#364AFF"/>
</linearGradient>
<clipPath id="clip0_410_710">
<rect width="96" height="96" fill="white" transform="translate(200 119)"/>
</clipPath>
</defs>
</svg>
